# xmcd CD database file generated by Grip 3.2.0
# 
# Track frame offsets:
#       150
#       22205
#       48735
#       77220
#       107458
#       129535
#       152240
#       171455
#       196558
#       217810
# 
# Disc length: 3121 seconds
# 
# Revision: 1
# Processed by: cddbd v1.5.1PL0 Copyright (c) Steve Scherf et al.
# Submitted via: Grip 3.2.0
# 
DISCID=850c2f0a
DTITLE=大野雄二 - LUPIN THE THIRD ［JAZZ］ Cool For Joy
DYEAR=2005
DGENRE=Jazz
TTITLE0=The Gift!
TTITLE1=Autumn In Praha
TTITLE2=Cool For Joy
TTITLE3=My Funny Valentine
TTITLE4=Golden Game
TTITLE5=Cool Vibration
TTITLE6=Feary Night
TTITLE7=The Look of Love
TTITLE8=Theme From Lupin Ⅲ ［Waltz Version］
TTITLE9=Loss of LOVE
EXTD=YEAR: 2005
EXTT0=
EXTT1=
EXTT2=
EXTT3=
EXTT4=
EXTT5=
EXTT6=
EXTT7=
EXTT8=
EXTT9=
PLAYORDER=
